<svg xmlns="http://www.w3.org/2000/svg" xmlns:xlink="http://www.w3.org/1999/xlink" viewBox="0 0 48 48"><defs><style>.cls-1{fill:#fe9661;}.cls-2{fill:url(#linear-gradient);}.cls-3{fill:url(#linear-gradient-2);}.cls-4{fill:url(#linear-gradient-3);}.cls-5{fill:#f0f7fc;}.cls-6{fill:url(#linear-gradient-4);}.cls-7{fill:url(#linear-gradient-5);}.cls-8{fill:url(#linear-gradient-6);}.cls-9{fill:url(#linear-gradient-7);}.cls-10{fill:url(#linear-gradient-8);}</style><linearGradient id="linear-gradient" x1="13" y1="4.03" x2="21.2" y2="4.03" gradientUnits="userSpaceOnUse"><stop offset="0" stop-color="#fe9661"/><stop offset="1" stop-color="#ffb369"/></linearGradient><linearGradient id="linear-gradient-2" x1="12.04" y1="7.17" x2="5.76" y2="0.89" xlink:href="#linear-gradient"/><linearGradient id="linear-gradient-3" x1="29" y1="20" x2="47" y2="20" xlink:href="#linear-gradient"/><linearGradient id="linear-gradient-4" x1="1" y1="30" x2="25" y2="30" gradientUnits="userSpaceOnUse"><stop offset="0" stop-color="#54a5ff"/><stop offset="1" stop-color="#8ad3fe"/></linearGradient><linearGradient id="linear-gradient-5" x1="5" y1="20" x2="21" y2="20" gradientTransform="translate(-7 33) rotate(-90)" gradientUnits="userSpaceOnUse"><stop offset="0" stop-color="#d3e6f5"/><stop offset="1" stop-color="#f0f7fc"/></linearGradient><linearGradient id="linear-gradient-6" x1="29" y1="44" x2="47" y2="44" xlink:href="#linear-gradient"/><linearGradient id="linear-gradient-7" x1="29" y1="38" x2="47" y2="38" xlink:href="#linear-gradient"/><linearGradient id="linear-gradient-8" x1="29" y1="32" x2="47" y2="32" xlink:href="#linear-gradient"/></defs><title>accounting</title><g id="accounting"><path class="cls-1" d="M13,15a1,1,0,0,1-1-1V5a1,1,0,0,1,2,0v9A1,1,0,0,1,13,15Z"/><path class="cls-2" d="M21.2,1.85c-.39,4.41-4.32,6.51-8.2,4.37C13.38,1.8,17.31-.3,21.2,1.85Z"/><path class="cls-3" d="M4.8,1.85C5.19,6.26,9.12,8.36,13,6.22,12.62,1.8,8.68-.3,4.8,1.85Z"/><circle class="cls-4" cx="38" cy="20" r="9"/><path class="cls-5" d="M38,19a1,1,0,1,1,1-1,1,1,0,0,0,2,0,3,3,0,0,0-2-2.82V15a1,1,0,0,0-2,0v.18A3,3,0,0,0,38,21a1,1,0,1,1-1,1,1,1,0,0,0-2,0,3,3,0,0,0,2,2.82V25a1,1,0,0,0,2,0v-.18A3,3,0,0,0,38,19Z"/><rect class="cls-6" x="1" y="13" width="24" height="34" rx="3"/><rect class="cls-7" x="10" y="12" width="6" height="16" transform="translate(33 7) rotate(90)"/><rect class="cls-8" x="29" y="41" width="18" height="6" rx="2"/><rect class="cls-9" x="29" y="35" width="18" height="6" rx="2"/><rect class="cls-10" x="29" y="29" width="18" height="6" rx="2"/><rect class="cls-5" x="5" y="27" width="6" height="6"/><rect class="cls-5" x="5" y="37" width="6" height="6"/><rect class="cls-5" x="15" y="27" width="6" height="6"/><rect class="cls-5" x="15" y="37" width="6" height="6"/></g></svg>