<svg xmlns="http://www.w3.org/2000/svg" xmlns:xlink="http://www.w3.org/1999/xlink" viewBox="0 0 48 48"><defs><style>.cls-1{fill:url(#linear-gradient);}.cls-2{fill:url(#linear-gradient-2);}.cls-3{fill:#eb7f58;}.cls-4{fill:#fe9661;}.cls-5{fill:url(#linear-gradient-3);}.cls-6{fill:url(#linear-gradient-4);}.cls-7{fill:url(#linear-gradient-5);}.cls-8{fill:url(#linear-gradient-6);}.cls-9{fill:url(#linear-gradient-7);}.cls-10{fill:#b4cde1;}.cls-11{fill:#54a5ff;}</style><linearGradient id="linear-gradient" x1="8" y1="21" x2="40" y2="21" gradientUnits="userSpaceOnUse"><stop offset="0" stop-color="#fe9661"/><stop offset="1" stop-color="#ffb369"/></linearGradient><linearGradient id="linear-gradient-2" x1="16" y1="44" x2="32" y2="44" gradientUnits="userSpaceOnUse"><stop offset="0" stop-color="#54a5ff"/><stop offset="1" stop-color="#8ad3fe"/></linearGradient><linearGradient id="linear-gradient-3" x1="16" y1="10.5" x2="20" y2="10.5" gradientUnits="userSpaceOnUse"><stop offset="0" stop-color="#d3e6f5"/><stop offset="1" stop-color="#f0f7fc"/></linearGradient><linearGradient id="linear-gradient-4" x1="20" x2="24" xlink:href="#linear-gradient-3"/><linearGradient id="linear-gradient-5" x1="24" x2="28" xlink:href="#linear-gradient-3"/><linearGradient id="linear-gradient-6" x1="28" x2="32" xlink:href="#linear-gradient-3"/><linearGradient id="linear-gradient-7" x1="15" y1="30.5" x2="32" y2="30.5" xlink:href="#linear-gradient-3"/></defs><title>Payment Process</title><g id="Payment_Process" data-name="Payment Process"><polygon class="cls-1" points="32 29 40 29 40 13 8 13 8 29 15 29 32 29"/><rect class="cls-2" x="16" y="41" width="16" height="6"/><circle class="cls-3" cx="24" cy="21" r="4"/><path class="cls-3" d="M8,17H8a4,4,0,0,0,4-4H8Z"/><path class="cls-3" d="M12,29h0a4,4,0,0,0-4-4H8v4Z"/><path class="cls-4" d="M40,17h0a4,4,0,0,1-4-4h4Z"/><path class="cls-4" d="M36,29h0a4,4,0,0,1,4-4h0v4Z"/><path class="cls-5" d="M18,8h0a2,2,0,0,1,2,2v3a0,0,0,0,1,0,0H16a0,0,0,0,1,0,0V10A2,2,0,0,1,18,8Z"/><path class="cls-6" d="M22,8h0a2,2,0,0,1,2,2v3a0,0,0,0,1,0,0H20a0,0,0,0,1,0,0V10A2,2,0,0,1,22,8Z"/><path class="cls-7" d="M26,8h0a2,2,0,0,1,2,2v3a0,0,0,0,1,0,0H24a0,0,0,0,1,0,0V10A2,2,0,0,1,26,8Z"/><path class="cls-8" d="M30,8h0a2,2,0,0,1,2,2v3a0,0,0,0,1,0,0H28a0,0,0,0,1,0,0V10A2,2,0,0,1,30,8Z"/><path class="cls-9" d="M32,29v4.09a3.11,3.11,0,0,1-.5,1.67L30.34,36.5A2,2,0,0,0,30,37.61V41H18V37.67a2,2,0,0,0-.4-1.2l-2-2.67A3,3,0,0,1,15,32V21a1,1,0,0,1,1-1h0a4,4,0,0,1,4,4v5Z"/><path class="cls-10" d="M23.45,33.89A.93.93,0,0,1,23,34a1,1,0,0,1-.89-.55A5.79,5.79,0,0,0,20,31.14V29a1.06,1.06,0,0,1,.45.11,7.73,7.73,0,0,1,3.44,3.44A1,1,0,0,1,23.45,33.89Z"/><path class="cls-11" d="M47,17a1,1,0,0,1-1-1V8a3,3,0,0,0-3-3H37a1,1,0,0,1,0-2h6a5,5,0,0,1,5,5v8A1,1,0,0,1,47,17Z"/><path class="cls-11" d="M11,39H5a5,5,0,0,1-5-5V26a1,1,0,0,1,2,0v8a3,3,0,0,0,3,3h6a1,1,0,0,1,0,2Z"/><path class="cls-11" d="M40,8a1,1,0,0,1-.71-.29l-3-3a1,1,0,0,1,0-1.42l3-3a1,1,0,1,1,1.42,1.42L38.41,4l2.3,2.29a1,1,0,0,1,0,1.42A1,1,0,0,1,40,8Z"/><path class="cls-11" d="M8,42a1,1,0,0,1-.71-.29,1,1,0,0,1,0-1.42L9.59,38l-2.3-2.29a1,1,0,1,1,1.42-1.42l3,3a1,1,0,0,1,0,1.42l-3,3A1,1,0,0,1,8,42Z"/></g></svg>