<svg xmlns="http://www.w3.org/2000/svg" xmlns:xlink="http://www.w3.org/1999/xlink" viewBox="0 0 48 48"><defs><style>.cls-1{fill:url(#linear-gradient);}.cls-2{fill:url(#linear-gradient-2);}.cls-3{fill:#54a5ff;}.cls-4{fill:#f0f7fc;}.cls-5{fill:url(#linear-gradient-3);}.cls-6{fill:#eb7f58;}</style><linearGradient id="linear-gradient" x1="5" y1="12" x2="13" y2="12" gradientUnits="userSpaceOnUse"><stop offset="0" stop-color="#d3e6f5"/><stop offset="1" stop-color="#f0f7fc"/></linearGradient><linearGradient id="linear-gradient-2" x1="13" y1="12" x2="29" y2="12" gradientUnits="userSpaceOnUse"><stop offset="0" stop-color="#54a5ff"/><stop offset="1" stop-color="#8ad3fe"/></linearGradient><linearGradient id="linear-gradient-3" x1="19" y1="37" x2="47" y2="37" gradientUnits="userSpaceOnUse"><stop offset="0" stop-color="#fe9661"/><stop offset="1" stop-color="#ffb369"/></linearGradient></defs><title>Annauncement</title><g id="Annauncement"><path class="cls-1" d="M7,6h6a0,0,0,0,1,0,0V18a0,0,0,0,1,0,0H7a2,2,0,0,1-2-2V8A2,2,0,0,1,7,6Z"/><polygon class="cls-2" points="29 23 13 18 13 6 29 1 29 23"/><path class="cls-3" d="M29,8h0a4,4,0,0,1,4,4v0a4,4,0,0,1-4,4h0a0,0,0,0,1,0,0V8A0,0,0,0,1,29,8Z"/><path class="cls-4" d="M22,11a1,1,0,1,1,1-1,1,1,0,0,0,2,0,3,3,0,0,0-2-2.82V7a1,1,0,0,0-2,0v.18A3,3,0,0,0,22,13a1,1,0,1,1-1,1,1,1,0,0,0-2,0,3,3,0,0,0,2,2.82V17a1,1,0,0,0,2,0v-.18A3,3,0,0,0,22,11Z"/><path class="cls-3" d="M5,16l-3.24-.81a1,1,0,0,1-.76-1V9.78a1,1,0,0,1,.76-1L5,8Z"/><path class="cls-3" d="M39,13H37a1,1,0,0,1,0-2h2a1,1,0,0,1,0,2Z"/><path class="cls-3" d="M35.24,8.76a1,1,0,0,1-.7-.3,1,1,0,0,1,0-1.41L36,5.64a1,1,0,0,1,1.41,1.41L36,8.46A1,1,0,0,1,35.24,8.76Z"/><path class="cls-3" d="M36.66,18.66a1,1,0,0,1-.71-.3L34.54,17A1,1,0,0,1,36,15.54L37.36,17a1,1,0,0,1,0,1.41A1,1,0,0,1,36.66,18.66Z"/><path class="cls-3" d="M7,18h4a0,0,0,0,1,0,0v8a2,2,0,0,1-2,2H9a2,2,0,0,1-2-2V18a0,0,0,0,1,0,0Z"/><rect class="cls-5" x="19" y="27" width="28" height="20" rx="2"/><rect class="cls-6" x="19" y="32" width="28" height="4"/><path class="cls-4" d="M31,44H23a1,1,0,0,1,0-2h8a1,1,0,0,1,0,2Z"/><path class="cls-4" d="M43,44H41a1,1,0,0,1,0-2h2a1,1,0,0,1,0,2Z"/></g></svg>