<svg xmlns="http://www.w3.org/2000/svg" xmlns:xlink="http://www.w3.org/1999/xlink" viewBox="0 0 48 48"><defs><style>.cls-1{fill:#eb7f58;}.cls-2{fill:url(#linear-gradient);}.cls-3{fill:url(#linear-gradient-2);}.cls-4{fill:url(#linear-gradient-3);}.cls-5{fill:#f0f7fc;}.cls-6{fill:url(#linear-gradient-4);}.cls-7{fill:#b4cde1;}.cls-8{fill:#fe9661;}</style><linearGradient id="linear-gradient" x1="38.78" y1="39.87" x2="46.97" y2="39.87" gradientTransform="translate(-15.81 42.41) rotate(-45)" gradientUnits="userSpaceOnUse"><stop offset="0" stop-color="#fe9661"/><stop offset="1" stop-color="#ffb369"/></linearGradient><linearGradient id="linear-gradient-2" x1="1" y1="24" x2="35" y2="24" gradientUnits="userSpaceOnUse"><stop offset="0" stop-color="#54a5ff"/><stop offset="1" stop-color="#8ad3fe"/></linearGradient><linearGradient id="linear-gradient-3" x1="5" y1="23" x2="31" y2="23" gradientUnits="userSpaceOnUse"><stop offset="0" stop-color="#d3e6f5"/><stop offset="1" stop-color="#f0f7fc"/></linearGradient><linearGradient id="linear-gradient-4" x1="22" y1="28" x2="40" y2="28" xlink:href="#linear-gradient-3"/></defs><title>Report</title><g id="Report"><path class="cls-1" d="M41,39a1,1,0,0,1-.71-.29l-4.44-4.45a1,1,0,0,1,1.41-1.41l4.45,4.44a1,1,0,0,1,0,1.42A1,1,0,0,1,41,39Z"/><path class="cls-2" d="M38.91,38.29h6.75a2,2,0,0,1,2,2v0a2,2,0,0,1-2,2H38.91a0,0,0,0,1,0,0v-4A0,0,0,0,1,38.91,38.29Z" transform="translate(41.16 -18.81) rotate(45)"/><rect class="cls-3" x="1" y="1" width="34" height="46" rx="3"/><rect class="cls-4" x="5" y="5" width="26" height="36"/><path class="cls-5" d="M18,45a1,1,0,0,1-1-1,1,1,0,0,1,.29-.71,1,1,0,0,1,1.42,0A1,1,0,0,1,19,44a1,1,0,0,1-1,1Z"/><circle class="cls-6" cx="31" cy="28" r="9"/><path class="cls-7" d="M17,26H9a1,1,0,0,1,0-2h8a1,1,0,0,1,0,2Z"/><path class="cls-7" d="M17,30H9a1,1,0,0,1,0-2h8a1,1,0,0,1,0,2Z"/><rect class="cls-7" x="9" y="33" width="10" height="4"/><path class="cls-8" d="M26.92,9.62a1,1,0,0,0-.54-.54A1,1,0,0,0,26,9H22a1,1,0,0,0,0,2h1.59l-4.72,4.71-2.32-1.54a1,1,0,0,0-1.19.06l-6,5a1,1,0,0,0-.13,1.41A1,1,0,0,0,10,21a1,1,0,0,0,.64-.23l5.43-4.52,2.38,1.58a1,1,0,0,0,1.26-.12L25,12.41V14a1,1,0,0,0,2,0V10A1,1,0,0,0,26.92,9.62Z"/><path class="cls-8" d="M31,27a1,1,0,1,1,1-1,1,1,0,0,0,2,0,3,3,0,0,0-2-2.82V23a1,1,0,0,0-2,0v.18A3,3,0,0,0,31,29a1,1,0,1,1-1,1,1,1,0,0,0-2,0,3,3,0,0,0,2,2.82V33a1,1,0,0,0,2,0v-.18A3,3,0,0,0,31,27Z"/><path class="cls-8" d="M31,38A10,10,0,1,1,41,28,10,10,0,0,1,31,38Zm0-18a8,8,0,1,0,8,8A8,8,0,0,0,31,20Z"/></g></svg>